<svg width="16" height="16" viewBox="0 0 16 16" fill="none" xmlns="http://www.w3.org/2000/svg">
    <path d="M4.0625 1C4.17853 1 4.28981 1.04609 4.37186 1.12814C4.45391 1.21019 4.5 1.32147 4.5 1.4375V1.875H11.5V1.4375C11.5 1.32147 11.5461 1.21019 11.6281 1.12814C11.7102 1.04609 11.8215 1 11.9375 1C12.0535 1 12.1648 1.04609 12.2469 1.12814C12.3289 1.21019 12.375 1.32147 12.375 1.4375V1.875H13.25C13.7141 1.875 14.1592 2.05937 14.4874 2.38756C14.8156 2.71575 15 3.16087 15 3.625V13.25C15 13.7141 14.8156 14.1592 14.4874 14.4874C14.1592 14.8156 13.7141 15 13.25 15H2.75C2.28587 15 1.84075 14.8156 1.51256 14.4874C1.18437 14.1592 1 13.7141 1 13.25V5.375H15V4.5H1V3.625C1 3.16087 1.18437 2.71575 1.51256 2.38756C1.84075 2.05937 2.28587 1.875 2.75 1.875H3.625V1.4375C3.625 1.32147 3.67109 1.21019 3.75314 1.12814C3.83519 1.04609 3.94647 1 4.0625 1V1Z" fill="black" />
</svg>
    