<svg width="32" height="32" viewBox="0 0 32 32" fill="none" xmlns="http://www.w3.org/2000/svg">
    <g clip-path="url(#clip0_19_223)">
        <path d="M32 15.464V16.537L31.969 16.709C31.917 17.178 31.88 17.647 31.808 18.105C31.5622 19.5911 31.0296 21.0152 30.24 22.298C29.0788 24.2258 27.3909 25.7815 25.375 26.782C24.2017 27.3713 22.9342 27.7504 21.63 27.902C21.338 27.938 21.047 27.97 20.76 28.001H9.51502C9.45802 27.991 9.40602 27.975 9.34802 27.97C8.22045 27.9018 7.11426 27.6319 6.08202 27.173C3.81602 26.163 2.12902 24.532 1.02502 22.288C0.539722 21.2939 0.22468 20.2254 0.0930234 19.127L-0.000976562 18.325V17.283C0.00902344 17.226 0.0250234 17.168 0.0300234 17.111C0.0870234 16.116 0.290023 15.142 0.645023 14.21C1.59802 11.705 3.26502 9.84501 5.62902 8.63701C6.84196 8.02244 8.17168 7.67271 9.53002 7.61101C10.202 7.58001 10.874 7.61101 11.535 7.70501C11.5698 7.70905 11.6051 7.70551 11.6384 7.69464C11.6717 7.68376 11.7023 7.66581 11.728 7.64201C12.673 6.65564 13.7813 5.83998 15.004 5.23101C16.1839 4.63761 17.4584 4.25518 18.77 4.10101C19.083 4.06501 19.395 4.03301 19.702 4.00201H20.66C20.723 4.01201 20.79 4.02301 20.848 4.02801C21.327 4.08501 21.801 4.12201 22.275 4.20501C23.728 4.45501 25.124 4.99101 26.369 5.78301C28.2863 6.97863 29.8223 8.69704 30.796 10.736C31.379 11.934 31.754 13.226 31.905 14.549L31.999 15.466L32 15.464ZM14.104 8.53101C14.125 8.55701 14.13 8.57301 14.14 8.57301C14.796 8.90601 15.426 9.29201 16.02 9.72901C16.056 9.75501 16.15 9.74501 16.197 9.71901C17.822 8.66701 19.593 8.30801 21.489 8.64601C23.348 8.98501 24.864 9.92701 26.02 11.438C27.327 13.146 27.827 15.079 27.468 17.224C27.223 18.662 26.655 19.958 25.692 21.037C23.932 23.011 21.728 23.829 19.135 23.485C17.541 23.271 16.161 22.568 15.02 21.396C13.556 19.896 12.082 18.401 10.614 16.901C10.416 16.698 10.203 16.542 9.92102 16.505C9.68492 16.4723 9.44458 16.5171 9.23613 16.6327C9.02767 16.7483 8.86236 16.9284 8.76502 17.146C8.57702 17.542 8.60402 17.995 9.01502 18.406C10.65 20.041 12.27 21.692 13.906 23.328C14.187 23.609 14.489 23.87 14.807 24.104C16 24.984 17.349 25.474 18.807 25.672C19.953 25.823 21.088 25.792 22.213 25.531C24.364 25.041 26.145 23.927 27.546 22.203C28.6928 20.8032 29.4204 19.1076 29.645 17.312C29.7895 16.2642 29.7614 15.1998 29.562 14.161C29.234 12.468 28.531 10.953 27.401 9.66101C25.245 7.19701 22.531 6.09801 19.302 6.34301C18.0677 6.44728 16.8687 6.80724 15.781 7.40001C15.1836 7.71371 14.6229 8.09269 14.109 8.53001L14.104 8.53101ZM13.318 25.719C13.271 25.677 13.229 25.636 13.183 25.594C12.516 24.953 11.844 24.313 11.183 23.662C11.1293 23.6025 11.0633 23.5554 10.9896 23.524C10.9158 23.4925 10.8361 23.4775 10.756 23.48C10.084 23.496 9.41702 23.501 8.75602 23.35C5.47502 22.595 3.56802 18.965 4.77702 15.772C5.73002 13.256 8.37102 11.725 10.975 12.194C12.142 12.408 13.168 12.913 14.011 13.793C15.037 14.871 16.089 15.913 17.131 16.981C17.365 17.221 17.636 17.335 17.964 17.288C18.381 17.225 18.719 17.022 18.87 16.6C19.021 16.183 18.948 15.793 18.641 15.475C17.552 14.355 16.49 13.204 15.36 12.131C13.162 10.048 10.574 9.42801 7.70902 10.313C3.86002 11.506 1.60502 15.547 2.48502 19.537C3.28702 23.178 6.41702 25.725 10.074 25.73H13.142C13.189 25.73 13.241 25.725 13.319 25.72L13.318 25.719Z" fill="black" />
    </g>
    <defs>
        <clipPath id="clip0_19_223">
            <rect width="32" height="32" fill="white" />
        </clipPath>
    </defs>
</svg>
    