<svg xmlns="http://www.w3.org/2000/svg" width="939" height="939" viewBox="0 0 939 939" fill="none">
    <circle cx="469.5" cy="469.5" r="469.5" fill="#F95E2E" />
    <mask id="a" width="939" height="939" x="0" y="0" maskUnits="userSpaceOnUse" style="mask-type:alpha">
        <circle cx="469.5" cy="469.5" r="469.5" fill="#F95E2E" />
    </mask>
    <g fill="#fff" mask="url(#a)">
        <path fill-opacity=".34" d="M595.5 322c-60.59-248.78 139.167-232.333 197-196L594-71-69 57v553.5l44-19c45.667 27.667 185 402 479 304C594 848.833 671 632 595.5 322Z" />
        <path fill-opacity=".34" d="M386.72 218.281c14-204.5 157-226.334 217-204.5 49.667-16.5 98.3-53.2-104.5-68-253.5-18.5-522 296-513 496s129.5 242.5 212.5 218c69.115-20.401 163.56-84.5 188-441.5Z" />
        <path fill-opacity=".54" d="M248.509 282c0-189 104.5-273.535 196.5-290-277 35.5-578.88 240.902-433 450.5 87 125 236.5 41.5 236.5-160.5Z" />
        <path d="M155.895 260c15-160 174.833-249.333 219.499-275l-201.5-6c-77.333 54.833-229.5 208.5-201.5 308.5 35 125 168.152 136.216 183.501-27.5Z" />
    </g>
</svg>